<?xml version="1.0" encoding="utf-8"?>
<!-- Generated by IcoMoon.io -->
<!DOCTYPE svg PUBLIC "-//W3C//DTD SVG 1.1//EN" "http://www.w3.org/Graphics/SVG/1.1/DTD/svg11.dtd">
<svg version="1.1" xmlns="http://www.w3.org/2000/svg" xmlns:xlink="http://www.w3.org/1999/xlink" width="512" height="512" viewBox="0 0 512 512">
<g>
</g>
	<path d="M67.686 162.739c44.723-38.4 80.077-68.787 175.923-14.592 46.054 26.035 83.2 35.815 114.125 35.815 54.144 0 89.216-30.131 119.552-56.166 10.829-9.293 12.237-25.805 3.123-36.838s-25.241-12.467-36.070-3.174c-44.723 38.425-80.051 68.787-175.949 14.592-126.669-71.552-186.010-20.582-233.677 20.377-10.803 9.293-12.211 25.779-3.123 36.813s25.267 12.493 36.096 3.174zM444.313 218.522c-44.723 38.4-80.051 68.787-175.949 14.592-126.643-71.552-185.984-20.583-233.651 20.352-10.829 9.293-12.237 25.805-3.123 36.839s25.241 12.467 36.071 3.175c44.723-38.425 80.077-68.787 175.923-14.618 46.055 26.035 83.2 35.84 114.125 35.84 54.144 0 89.216-30.131 119.552-56.192 10.829-9.293 12.237-25.779 3.123-36.813-9.088-11.059-25.241-12.467-36.070-3.174zM444.313 349.261c-44.723 38.4-80.051 68.787-175.949 14.592-126.643-71.552-186.010-20.608-233.651 20.352-10.829 9.293-12.237 25.805-3.123 36.839s25.241 12.467 36.071 3.175c44.749-38.425 80.077-68.762 175.949-14.618 46.055 26.035 83.2 35.84 114.125 35.84 54.144 0 89.216-30.131 119.552-56.192 10.829-9.267 12.237-25.779 3.123-36.813s-25.267-12.493-36.096-3.175z" fill="#000000" />
</svg>
